REM DIRINDEX 1\2,1\3,1\4,1\5
REM DIRNAME cjc005,folder01,folder02,folder03,folder04
TITLE ""
FILE "P1Q_t_0302-0311.mp3" MP3
  TRACK 01 AUDIO
    TITLE "3:cjc005_1807"
    INDEX 01 00:00:00
  TRACK 02 AUDIO
    TITLE "0:"
    INDEX 01 00:01:11
  TRACK 03 AUDIO
    TITLE "4:cjc005_1808"
    INDEX 01 00:01:34
  TRACK 04 AUDIO
    TITLE "0:"
    INDEX 01 00:03:00
  TRACK 05 AUDIO
    TITLE "5:cjc005_1809"
    INDEX 01 00:03:29
  TRACK 06 AUDIO
    TITLE "0:"
    INDEX 01 00:06:59
  TRACK 07 AUDIO
    TITLE "3:cjc005_1810"
    INDEX 01 00:07:33
  TRACK 08 AUDIO
    TITLE "0:"
    INDEX 01 00:08:54
  TRACK 09 AUDIO
    TITLE "4:cjc005_1811"
    INDEX 01 00:08:73
  TRACK 10 AUDIO
    TITLE "0:"
    INDEX 01 00:10:25
  TRACK 11 AUDIO
    TITLE "5:cjc005_1812"
    INDEX 01 00:10:55
  TRACK 12 AUDIO
    TITLE "0:"
    INDEX 01 00:15:48
  TRACK 13 AUDIO
    TITLE "3:cjc005_1813"
    INDEX 01 00:16:24
  TRACK 14 AUDIO
    TITLE "0:"
    INDEX 01 00:17:51
  TRACK 15 AUDIO
    TITLE "4:cjc005_1814"
    INDEX 01 00:17:74
  TRACK 16 AUDIO
    TITLE "0:"
    INDEX 01 00:19:03
  TRACK 17 AUDIO
    TITLE "5:cjc005_1815"
    INDEX 01 00:19:20
  TRACK 18 AUDIO
    TITLE "0:"
    INDEX 01 00:23:24
  TRACK 19 AUDIO
    TITLE "3:cjc005_1816"
    INDEX 01 00:24:00
  TRACK 20 AUDIO
    TITLE "0:"
    INDEX 01 00:25:15
  TRACK 21 AUDIO
    TITLE "4:cjc005_1817"
    INDEX 01 00:25:45
  TRACK 22 AUDIO
    TITLE "0:"
    INDEX 01 00:27:00
  TRACK 23 AUDIO
    TITLE "5:cjc005_1818"
    INDEX 01 00:27:28
  TRACK 24 AUDIO
    TITLE "0:"
    INDEX 01 00:30:28
  TRACK 25 AUDIO
    TITLE "3:cjc005_1819"
    INDEX 01 00:31:12
  TRACK 26 AUDIO
    TITLE "0:"
    INDEX 01 00:32:33
  TRACK 27 AUDIO
    TITLE "4:cjc005_1820"
    INDEX 01 00:32:54
  TRACK 28 AUDIO
    TITLE "0:"
    INDEX 01 00:33:69
  TRACK 29 AUDIO
    TITLE "5:cjc005_1821"
    INDEX 01 00:34:16
  TRACK 30 AUDIO
    TITLE "0:"
    INDEX 01 00:39:00
  TRACK 31 AUDIO
    TITLE "3:cjc005_1822"
    INDEX 01 00:39:58
  TRACK 32 AUDIO
    TITLE "0:"
    INDEX 01 00:41:02
  TRACK 33 AUDIO
    TITLE "4:cjc005_1823"
    INDEX 01 00:41:20
  TRACK 34 AUDIO
    TITLE "0:"
    INDEX 01 00:42:25
  TRACK 35 AUDIO
    TITLE "5:cjc005_1824"
    INDEX 01 00:42:47
  TRACK 36 AUDIO
    TITLE "0:"
    INDEX 01 00:46:29
  TRACK 37 AUDIO
    TITLE "3:cjc005_1825"
    INDEX 01 00:47:05
  TRACK 38 AUDIO
    TITLE "0:"
    INDEX 01 00:48:14
  TRACK 39 AUDIO
    TITLE "4:cjc005_1826"
    INDEX 01 00:48:36
  TRACK 40 AUDIO
    TITLE "0:"
    INDEX 01 00:49:37
  TRACK 41 AUDIO
    TITLE "5:cjc005_1827"
    INDEX 01 00:49:63
  TRACK 42 AUDIO
    TITLE "0:"
    INDEX 01 00:54:05
  TRACK 43 AUDIO
    TITLE "3:cjc005_1828"
    INDEX 01 00:54:56
  TRACK 44 AUDIO
    TITLE "0:"
    INDEX 01 00:55:67
  TRACK 45 AUDIO
    TITLE "4:cjc005_1829"
    INDEX 01 00:56:16
  TRACK 46 AUDIO
    TITLE "0:"
    INDEX 01 00:57:31
  TRACK 47 AUDIO
    TITLE "5:cjc005_1830"
    INDEX 01 00:57:50
  TRACK 48 AUDIO
    TITLE "0:"
    INDEX 01 01:01:13
  TRACK 49 AUDIO
    TITLE "3:cjc005_1831"
    INDEX 01 01:01:60
  TRACK 50 AUDIO
    TITLE "0:"
    INDEX 01 01:02:71
  TRACK 51 AUDIO
    TITLE "4:cjc005_1832"
    INDEX 01 01:03:26
  TRACK 52 AUDIO
    TITLE "0:"
    INDEX 01 01:05:01
  TRACK 53 AUDIO
    TITLE "5:cjc005_1833"
    INDEX 01 01:05:22
  TRACK 54 AUDIO
    TITLE "0:"
    INDEX 01 01:08:56
  TRACK 55 AUDIO
    TITLE "3:cjc005_1834"
    INDEX 01 01:09:34
  TRACK 56 AUDIO
    TITLE "0:"
    INDEX 01 01:10:71
  TRACK 57 AUDIO
    TITLE "4:cjc005_1835"
    INDEX 01 01:11:15
  TRACK 58 AUDIO
    TITLE "0:"
    INDEX 01 01:12:19
  TRACK 59 AUDIO
    TITLE "5:cjc005_1836"
    INDEX 01 01:12:40
  TRACK 60 AUDIO
    TITLE "0:"
    INDEX 01 01:17:51
